<svg data-v-423bf9ae="" xmlns="http://www.w3.org/2000/svg" viewBox="0 0 498 94" class="iconLeft"><!----><!----><!----><g data-v-423bf9ae="" id="20e515ad-780e-4588-8bb6-0c404d28ff63" fill="white" transform="matrix(4.444444444444445,0,0,4.444444444444445,114.30508428812027,7.114829142888382)"><path d="M7.13 11.89L7.13 8.27L8.48 8.27L8.48 12.81L8.48 12.81Q8.32 12.87 8.00 12.94L8.00 12.94L8.00 12.94Q7.69 13.01 7.27 13.08L7.27 13.08L7.27 13.08Q6.86 13.15 6.37 13.20L6.37 13.20L6.37 13.20Q5.88 13.24 5.38 13.24L5.38 13.24L5.38 13.24Q4.35 13.24 3.51 12.91L3.51 12.91L3.51 12.91Q2.67 12.57 2.07 11.93L2.07 11.93L2.07 11.93Q1.47 11.28 1.14 10.35L1.14 10.35L1.14 10.35Q0.81 9.41 0.81 8.19L0.81 8.19L0.81 8.19Q0.81 6.97 1.18 6.03L1.18 6.03L1.18 6.03Q1.55 5.08 2.18 4.44L2.18 4.44L2.18 4.44Q2.81 3.79 3.66 3.46L3.66 3.46L3.66 3.46Q4.51 3.12 5.47 3.12L5.47 3.12L5.47 3.12Q6.13 3.12 6.64 3.21L6.64 3.21L6.64 3.21Q7.15 3.29 7.52 3.40L7.52 3.40L7.52 3.40Q7.88 3.51 8.11 3.63L8.11 3.63L8.11 3.63Q8.34 3.74 8.43 3.79L8.43 3.79L7.99 4.93L7.99 4.93Q7.59 4.66 6.92 4.49L6.92 4.49L6.92 4.49Q6.24 4.31 5.54 4.31L5.54 4.31L5.54 4.31Q4.80 4.31 4.19 4.58L4.19 4.58L4.19 4.58Q3.58 4.84 3.16 5.35L3.16 5.35L3.16 5.35Q2.73 5.85 2.49 6.57L2.49 6.57L2.49 6.57Q2.25 7.29 2.25 8.19L2.25 8.19L2.25 8.19Q2.25 9.06 2.46 9.77L2.46 9.77L2.46 9.77Q2.66 10.49 3.07 11.00L3.07 11.00L3.07 11.00Q3.49 11.51 4.09 11.79L4.09 11.79L4.09 11.79Q4.70 12.07 5.53 12.07L5.53 12.07L5.53 12.07Q6.12 12.07 6.53 12.01L6.53 12.01L6.53 12.01Q6.94 11.94 7.13 11.89L7.13 11.89ZM12.87 12.08L12.87 12.08L12.87 12.08Q14.99 12.08 14.99 10.63L14.99 10.63L14.99 10.63Q14.99 10.18 14.80 9.86L14.80 9.86L14.80 9.86Q14.62 9.55 14.29 9.32L14.29 9.32L14.29 9.32Q13.97 9.09 13.56 8.92L13.56 8.92L13.56 8.92Q13.15 8.75 12.68 8.58L12.68 8.58L12.68 8.58Q12.15 8.40 11.68 8.17L11.68 8.17L11.68 8.17Q11.20 7.94 10.85 7.62L10.85 7.62L10.85 7.62Q10.50 7.31 10.30 6.87L10.30 6.87L10.30 6.87Q10.09 6.44 10.09 5.82L10.09 5.82L10.09 5.82Q10.09 4.55 10.96 3.84L10.96 3.84L10.96 3.84Q11.83 3.12 13.36 3.12L13.36 3.12L13.36 3.12Q14.24 3.12 14.96 3.31L14.96 3.31L14.96 3.31Q15.68 3.50 16.02 3.72L16.02 3.72L15.58 4.83L15.58 4.83Q15.29 4.65 14.71 4.47L14.71 4.47L14.71 4.47Q14.13 4.30 13.36 4.30L13.36 4.30L13.36 4.30Q12.96 4.30 12.63 4.38L12.63 4.38L12.63 4.38Q12.29 4.47 12.04 4.63L12.04 4.63L12.04 4.63Q11.79 4.80 11.64 5.06L11.64 5.06L11.64 5.06Q11.49 5.32 11.49 5.67L11.49 5.67L11.49 5.67Q11.49 6.06 11.65 6.33L11.65 6.33L11.65 6.33Q11.80 6.59 12.08 6.80L12.08 6.80L12.08 6.80Q12.36 7 12.73 7.17L12.73 7.17L12.73 7.17Q13.10 7.34 13.55 7.50L13.55 7.50L13.55 7.50Q14.18 7.76 14.71 8.01L14.71 8.01L14.71 8.01Q15.23 8.26 15.62 8.61L15.62 8.61L15.62 8.61Q16.00 8.96 16.21 9.44L16.21 9.44L16.21 9.44Q16.42 9.93 16.42 10.61L16.42 10.61L16.42 10.61Q16.42 11.89 15.49 12.57L15.49 12.57L15.49 12.57Q14.56 13.26 12.87 13.26L12.87 13.26L12.87 13.26Q12.29 13.26 11.81 13.18L11.81 13.18L11.81 13.18Q11.33 13.10 10.95 13.00L10.95 13.00L10.95 13.00Q10.57 12.89 10.30 12.78L10.30 12.78L10.30 12.78Q10.02 12.66 9.87 12.57L9.87 12.57L10.28 11.45L10.28 11.45Q10.60 11.63 11.26 11.86L11.26 11.86L11.26 11.86Q11.91 12.08 12.87 12.08ZM26.03 13.05L24.54 13.05L24.54 13.05Q24.30 12.42 24.09 11.81L24.09 11.81L24.09 11.81Q23.88 11.20 23.66 10.57L23.66 10.57L19.26 10.57L18.38 13.05L16.97 13.05L16.97 13.05Q17.53 11.51 18.02 10.20L18.02 10.20L18.02 10.20Q18.51 8.89 18.98 7.71L18.98 7.71L18.98 7.71Q19.45 6.54 19.91 5.47L19.91 5.47L19.91 5.47Q20.37 4.40 20.87 3.35L20.87 3.35L22.12 3.35L22.12 3.35Q22.62 4.40 23.09 5.47L23.09 5.47L23.09 5.47Q23.55 6.54 24.02 7.71L24.02 7.71L24.02 7.71Q24.49 8.89 24.98 10.20L24.98 10.20L24.98 10.20Q25.47 11.51 26.03 13.05L26.03 13.05ZM19.66 9.45L23.27 9.45L23.27 9.45Q22.82 8.23 22.38 7.09L22.38 7.09L22.38 7.09Q21.94 5.95 21.46 4.90L21.46 4.90L21.46 4.90Q20.97 5.95 20.53 7.09L20.53 7.09L20.53 7.09Q20.09 8.23 19.66 9.45L19.66 9.45ZM38.54 13.05L37.06 13.05L37.06 13.05Q36.82 12.42 36.61 11.81L36.61 11.81L36.61 11.81Q36.40 11.20 36.18 10.57L36.18 10.57L31.78 10.57L30.90 13.05L29.48 13.05L29.48 13.05Q30.04 11.51 30.53 10.20L30.53 10.20L30.53 10.20Q31.02 8.89 31.49 7.71L31.49 7.71L31.49 7.71Q31.96 6.54 32.42 5.47L32.42 5.47L32.42 5.47Q32.89 4.40 33.39 3.35L33.39 3.35L34.64 3.35L34.64 3.35Q35.14 4.40 35.60 5.47L35.60 5.47L35.60 5.47Q36.06 6.54 36.53 7.71L36.53 7.71L36.53 7.71Q37.00 8.89 37.49 10.20L37.49 10.20L37.49 10.20Q37.98 11.51 38.54 13.05L38.54 13.05ZM32.17 9.45L35.78 9.45L35.78 9.45Q35.34 8.23 34.89 7.09L34.89 7.09L34.89 7.09Q34.45 5.95 33.98 4.90L33.98 4.90L33.98 4.90Q33.49 5.95 33.05 7.09L33.05 7.09L33.05 7.09Q32.61 8.23 32.17 9.45L32.17 9.45ZM39.77 13.05L39.77 5.98L39.77 5.98Q40.22 5.87 40.96 5.74L40.96 5.74L40.96 5.74Q41.71 5.61 42.67 5.61L42.67 5.61L42.67 5.61Q43.54 5.61 44.11 5.86L44.11 5.86L44.11 5.86Q44.69 6.10 45.03 6.54L45.03 6.54L45.03 6.54Q45.37 6.99 45.51 7.60L45.51 7.60L45.51 7.60Q45.65 8.22 45.65 8.96L45.65 8.96L45.65 13.05L44.35 13.05L44.35 9.24L44.35 9.24Q44.35 8.57 44.26 8.09L44.26 8.09L44.26 8.09Q44.17 7.62 43.96 7.32L43.96 7.32L43.96 7.32Q43.75 7.03 43.40 6.89L43.40 6.89L43.40 6.89Q43.05 6.76 42.53 6.76L42.53 6.76L42.53 6.76Q42.32 6.76 42.10 6.78L42.10 6.78L42.10 6.78Q41.87 6.79 41.67 6.81L41.67 6.81L41.67 6.81Q41.47 6.83 41.31 6.86L41.31 6.86L41.31 6.86Q41.15 6.89 41.08 6.90L41.08 6.90L41.08 13.05L39.77 13.05ZM50.27 12.11L50.27 12.11L50.27 12.11Q50.74 12.11 51.09 12.09L51.09 12.09L51.09 12.09Q51.45 12.07 51.69 12.01L51.69 12.01L51.69 9.84L51.69 9.84Q51.55 9.77 51.23 9.72L51.23 9.72L51.23 9.72Q50.92 9.67 50.47 9.67L50.47 9.67L50.47 9.67Q50.18 9.67 49.85 9.72L49.85 9.72L49.85 9.72Q49.52 9.76 49.24 9.89L49.24 9.89L49.24 9.89Q48.97 10.02 48.79 10.25L48.79 10.25L48.79 10.25Q48.61 10.49 48.61 10.86L48.61 10.86L48.61 10.86Q48.61 11.56 49.06 11.84L49.06 11.84L49.06 11.84Q49.50 12.11 50.27 12.11ZM50.16 5.59L50.16 5.59L50.16 5.59Q50.95 5.59 51.48 5.79L51.48 5.79L51.48 5.79Q52.02 5.99 52.35 6.36L52.35 6.36L52.35 6.36Q52.68 6.73 52.82 7.25L52.82 7.25L52.82 7.25Q52.96 7.76 52.96 8.37L52.96 8.37L52.96 12.92L52.96 12.92Q52.79 12.95 52.49 13.00L52.49 13.00L52.49 13.00Q52.19 13.05 51.81 13.09L51.81 13.09L51.81 13.09Q51.44 13.13 50.99 13.17L50.99 13.17L50.99 13.17Q50.55 13.20 50.12 13.20L50.12 13.20L50.12 13.20Q49.50 13.20 48.99 13.08L48.99 13.08L48.99 13.08Q48.47 12.95 48.09 12.68L48.09 12.68L48.09 12.68Q47.71 12.40 47.50 11.96L47.50 11.96L47.50 11.96Q47.29 11.51 47.29 10.88L47.29 10.88L47.29 10.88Q47.29 10.28 47.54 9.84L47.54 9.84L47.54 9.84Q47.78 9.41 48.20 9.14L48.20 9.14L48.20 9.14Q48.62 8.88 49.18 8.75L49.18 8.75L49.18 8.75Q49.74 8.62 50.36 8.62L50.36 8.62L50.36 8.62Q50.55 8.62 50.76 8.64L50.76 8.64L50.76 8.64Q50.97 8.67 51.16 8.70L51.16 8.70L51.16 8.70Q51.35 8.74 51.49 8.76L51.49 8.76L51.49 8.76Q51.63 8.79 51.69 8.81L51.69 8.81L51.69 8.44L51.69 8.44Q51.69 8.12 51.62 7.80L51.62 7.80L51.62 7.80Q51.55 7.49 51.37 7.25L51.37 7.25L51.37 7.25Q51.18 7 50.87 6.85L50.87 6.85L50.87 6.85Q50.55 6.71 50.05 6.71L50.05 6.71L50.05 6.71Q49.41 6.71 48.92 6.80L48.92 6.80L48.92 6.80Q48.44 6.89 48.20 6.99L48.20 6.99L48.05 5.91L48.05 5.91Q48.30 5.80 48.89 5.69L48.89 5.69L48.89 5.69Q49.48 5.59 50.16 5.59ZM57.48 12.10L57.30 13.19L57.30 13.19Q56.10 13.16 55.59 12.67L55.59 12.67L55.59 12.67Q55.09 12.18 55.09 11.14L55.09 11.14L55.09 2.41L56.39 2.18L56.39 10.93L56.39 10.93Q56.39 11.26 56.45 11.47L56.45 11.47L56.45 11.47Q56.50 11.68 56.63 11.80L56.63 11.80L56.63 11.80Q56.76 11.93 56.97 11.99L56.97 11.99L56.97 11.99Q57.18 12.05 57.48 12.10L57.48 12.10ZM57.85 15.46L58.09 14.41L58.09 14.41Q58.24 14.48 58.48 14.54L58.48 14.54L58.48 14.54Q58.73 14.60 58.97 14.60L58.97 14.60L58.97 14.60Q59.74 14.60 60.17 14.26L60.17 14.26L60.17 14.26Q60.61 13.92 60.96 13.15L60.96 13.15L60.96 13.15Q60.07 11.47 59.31 9.58L59.31 9.58L59.31 9.58Q58.55 7.70 58.04 5.77L58.04 5.77L59.44 5.77L59.44 5.77Q59.60 6.40 59.81 7.13L59.81 7.13L59.81 7.13Q60.03 7.85 60.30 8.62L60.30 8.62L60.30 8.62Q60.56 9.39 60.87 10.16L60.87 10.16L60.87 10.16Q61.18 10.93 61.52 11.65L61.52 11.65L61.52 11.65Q62.05 10.18 62.44 8.74L62.44 8.74L62.44 8.74Q62.83 7.29 63.18 5.77L63.18 5.77L64.53 5.77L64.53 5.77Q64.02 7.83 63.41 9.72L63.41 9.72L63.41 9.72Q62.79 11.62 62.08 13.27L62.08 13.27L62.08 13.27Q61.80 13.90 61.49 14.36L61.49 14.36L61.49 14.36Q61.19 14.81 60.83 15.11L60.83 15.11L60.83 15.11Q60.47 15.40 60.01 15.54L60.01 15.54L60.01 15.54Q59.56 15.68 58.98 15.68L58.98 15.68L58.98 15.68Q58.83 15.68 58.66 15.66L58.66 15.66L58.66 15.66Q58.49 15.64 58.33 15.60L58.33 15.60L58.33 15.60Q58.17 15.57 58.04 15.53L58.04 15.53L58.04 15.53Q57.90 15.48 57.85 15.46L57.85 15.46ZM67.12 3.51L67.12 5.77L69.87 5.77L69.87 6.86L67.12 6.86L67.12 10.22L67.12 10.22Q67.12 10.77 67.20 11.12L67.20 11.12L67.20 11.12Q67.28 11.48 67.45 11.68L67.45 11.68L67.45 11.68Q67.62 11.89 67.87 11.97L67.87 11.97L67.87 11.97Q68.12 12.05 68.46 12.05L68.46 12.05L68.46 12.05Q69.05 12.05 69.41 11.92L69.41 11.92L69.41 11.92Q69.76 11.79 69.90 11.73L69.90 11.73L70.15 12.81L70.15 12.81Q69.96 12.91 69.47 13.05L69.47 13.05L69.47 13.05Q68.98 13.20 68.35 13.20L68.35 13.20L68.35 13.20Q67.61 13.20 67.12 13.01L67.12 13.01L67.12 13.01Q66.64 12.82 66.35 12.45L66.35 12.45L66.35 12.45Q66.05 12.07 65.93 11.52L65.93 11.52L65.93 11.52Q65.81 10.96 65.81 10.23L65.81 10.23L65.81 3.74L67.12 3.51ZM72.83 5.77L72.83 13.05L71.53 13.05L71.53 5.77L72.83 5.77ZM72.17 4.45L72.17 4.45L72.17 4.45Q71.82 4.45 71.58 4.22L71.58 4.22L71.58 4.22Q71.33 3.99 71.33 3.60L71.33 3.60L71.33 3.60Q71.33 3.21 71.58 2.97L71.58 2.97L71.58 2.97Q71.82 2.74 72.17 2.74L72.17 2.74L72.17 2.74Q72.52 2.74 72.77 2.97L72.77 2.97L72.77 2.97Q73.01 3.21 73.01 3.60L73.01 3.60L73.01 3.60Q73.01 3.99 72.77 4.22L72.77 4.22L72.77 4.22Q72.52 4.45 72.17 4.45ZM78.23 13.22L78.23 13.22L78.23 13.22Q77.35 13.22 76.69 12.94L76.69 12.94L76.69 12.94Q76.02 12.66 75.57 12.15L75.57 12.15L75.57 12.15Q75.11 11.65 74.89 10.96L74.89 10.96L74.89 10.96Q74.66 10.26 74.66 9.42L74.66 9.42L74.66 9.42Q74.66 8.58 74.91 7.88L74.91 7.88L74.91 7.88Q75.15 7.18 75.60 6.67L75.60 6.67L75.60 6.67Q76.05 6.16 76.70 5.87L76.70 5.87L76.70 5.87Q77.35 5.59 78.15 5.59L78.15 5.59L78.15 5.59Q78.64 5.59 79.13 5.67L79.13 5.67L79.13 5.67Q79.62 5.75 80.07 5.94L80.07 5.94L79.77 7.04L79.77 7.04Q79.48 6.90 79.09 6.82L79.09 6.82L79.09 6.82Q78.71 6.73 78.27 6.73L78.27 6.73L78.27 6.73Q77.18 6.73 76.60 7.42L76.60 7.42L76.60 7.42Q76.02 8.11 76.02 9.42L76.02 9.42L76.02 9.42Q76.02 10.01 76.15 10.50L76.15 10.50L76.15 10.50Q76.29 10.99 76.57 11.34L76.57 11.34L76.57 11.34Q76.86 11.69 77.31 11.88L77.31 11.88L77.31 11.88Q77.76 12.07 78.40 12.07L78.40 12.07L78.40 12.07Q78.92 12.07 79.34 11.97L79.34 11.97L79.34 11.97Q79.76 11.87 80.00 11.76L80.00 11.76L80.18 12.85L80.18 12.85Q80.07 12.92 79.86 12.98L79.86 12.98L79.86 12.98Q79.65 13.05 79.38 13.10L79.38 13.10L79.38 13.10Q79.11 13.15 78.81 13.18L78.81 13.18L78.81 13.18Q78.51 13.22 78.23 13.22ZM83.27 12.11L83.27 12.11L83.27 12.11Q84.07 12.11 84.46 11.90L84.46 11.90L84.46 11.90Q84.84 11.69 84.84 11.23L84.84 11.23L84.84 11.23Q84.84 10.75 84.46 10.47L84.46 10.47L84.46 10.47Q84.08 10.19 83.22 9.84L83.22 9.84L83.22 9.84Q82.80 9.67 82.41 9.50L82.41 9.50L82.41 9.50Q82.03 9.32 81.75 9.09L81.75 9.09L81.75 9.09Q81.47 8.85 81.30 8.51L81.30 8.51L81.30 8.51Q81.13 8.18 81.13 7.69L81.13 7.69L81.13 7.69Q81.13 6.72 81.84 6.15L81.84 6.15L81.84 6.15Q82.56 5.59 83.79 5.59L83.79 5.59L83.79 5.59Q84.10 5.59 84.41 5.62L84.41 5.62L84.41 5.62Q84.71 5.66 84.98 5.71L84.98 5.71L84.98 5.71Q85.25 5.75 85.45 5.81L85.45 5.81L85.45 5.81Q85.65 5.87 85.76 5.91L85.76 5.91L85.53 7.03L85.53 7.03Q85.32 6.92 84.87 6.80L84.87 6.80L84.87 6.80Q84.42 6.68 83.79 6.68L83.79 6.68L83.79 6.68Q83.24 6.68 82.84 6.89L82.84 6.89L82.84 6.89Q82.43 7.11 82.43 7.57L82.43 7.57L82.43 7.57Q82.43 7.81 82.52 7.99L82.52 7.99L82.52 7.99Q82.61 8.18 82.80 8.32L82.80 8.32L82.80 8.32Q82.99 8.47 83.27 8.60L83.27 8.60L83.27 8.60Q83.55 8.72 83.94 8.86L83.94 8.86L83.94 8.86Q84.46 9.06 84.87 9.25L84.87 9.25L84.87 9.25Q85.27 9.44 85.56 9.69L85.56 9.69L85.56 9.69Q85.85 9.94 86.00 10.30L86.00 10.30L86.00 10.30Q86.16 10.65 86.16 11.17L86.16 11.17L86.16 11.17Q86.16 12.18 85.41 12.70L85.41 12.70L85.41 12.70Q84.66 13.22 83.27 13.22L83.27 13.22L83.27 13.22Q82.31 13.22 81.76 13.05L81.76 13.05L81.76 13.05Q81.21 12.89 81.02 12.81L81.02 12.81L81.26 11.69L81.26 11.69Q81.48 11.77 81.97 11.94L81.97 11.94L81.97 11.94Q82.46 12.11 83.27 12.11Z"></path></g><!----><g data-v-423bf9ae="" id="88f13b95-9aec-4f77-8363-547ab360915a" transform="matrix(1.0198443942599826,0,0,1.0198443942599826,-1.992227493794374,-2.86898469606038)" stroke="none" fill="white"><path d="M98 9.44c-5.041 0-7.598-.755-10.071-1.485-2.351-.694-4.57-1.35-9.131-1.35s-6.78.656-9.131 1.35c-2.474.73-5.03 1.485-10.071 1.485-5.04 0-7.597-.755-10.069-1.485-2.35-.694-4.57-1.35-9.129-1.35s-6.779.656-9.129 1.35c-2.473.73-5.03 1.485-10.069 1.485s-7.597-.755-10.07-1.485C8.78 7.261 6.56 6.605 2 6.605V3.289c5.04 0 7.597.755 10.069 1.485 2.35.694 4.57 1.35 9.129 1.35 4.56 0 6.779-.656 9.129-1.35 2.473-.73 5.03-1.485 10.069-1.485s7.596.755 10.069 1.485c2.35.694 4.569 1.35 9.13 1.35 4.562 0 6.781-.656 9.132-1.35 2.474-.73 5.03-1.485 10.07-1.485s7.597.755 10.07 1.485c2.351.694 4.57 1.35 9.132 1.35V9.44zM98 17.225c-5.041 0-7.598-.755-10.071-1.485-2.351-.694-4.57-1.35-9.131-1.35s-6.78.656-9.131 1.35c-2.474.73-5.03 1.485-10.071 1.485-5.04 0-7.597-.755-10.069-1.485-2.35-.694-4.57-1.35-9.129-1.35s-6.779.656-9.129 1.35c-2.473.73-5.03 1.485-10.069 1.485s-7.597-.755-10.07-1.485c-2.35-.694-4.57-1.35-9.13-1.35v-3.316c5.04 0 7.597.755 10.069 1.485 2.35.694 4.57 1.35 9.129 1.35 4.56 0 6.779-.656 9.129-1.35 2.473-.73 5.03-1.485 10.069-1.485s7.596.755 10.069 1.485c2.35.694 4.569 1.35 9.13 1.35 4.562 0 6.781-.656 9.132-1.35 2.474-.73 5.03-1.485 10.07-1.485s7.597.755 10.07 1.485c2.351.694 4.57 1.35 9.132 1.35v3.316zM98 25.01c-5.041 0-7.598-.755-10.071-1.485-2.351-.694-4.57-1.35-9.131-1.35s-6.78.656-9.131 1.35c-2.474.73-5.03 1.485-10.071 1.485-5.04 0-7.597-.755-10.069-1.485-2.35-.694-4.57-1.35-9.129-1.35s-6.779.656-9.129 1.35c-2.473.73-5.03 1.485-10.069 1.485s-7.596-.755-10.069-1.485c-2.35-.694-4.57-1.35-9.13-1.35v-3.316c5.04 0 7.597.755 10.069 1.485 2.35.694 4.57 1.35 9.129 1.35 4.56 0 6.779-.656 9.129-1.35 2.473-.73 5.03-1.485 10.069-1.485s7.596.755 10.069 1.485c2.35.694 4.569 1.35 9.13 1.35 4.562 0 6.781-.656 9.132-1.35 2.474-.73 5.03-1.485 10.07-1.485s7.597.755 10.07 1.485c2.351.694 4.57 1.35 9.132 1.35v3.316zM98 32.794c-5.041 0-7.598-.755-10.071-1.485-2.351-.694-4.57-1.35-9.131-1.35s-6.78.656-9.131 1.35c-2.474.73-5.03 1.485-10.071 1.485-5.04 0-7.597-.755-10.069-1.485-2.35-.694-4.57-1.35-9.129-1.35s-6.779.656-9.129 1.35c-2.473.73-5.03 1.485-10.069 1.485s-7.596-.755-10.069-1.485c-2.35-.694-4.57-1.35-9.13-1.35v-3.316c5.04 0 7.597.755 10.069 1.485 2.35.694 4.57 1.35 9.129 1.35 4.56 0 6.779-.656 9.129-1.35 2.473-.73 5.03-1.485 10.069-1.485s7.596.755 10.069 1.485c2.35.694 4.569 1.35 9.13 1.35 4.562 0 6.781-.656 9.132-1.35 2.474-.73 5.03-1.485 10.07-1.485s7.597.755 10.07 1.485c2.351.694 4.57 1.35 9.132 1.35v3.316zM98 40.58c-5.041 0-7.598-.755-10.071-1.485-2.351-.694-4.57-1.35-9.131-1.35s-6.78.656-9.131 1.35c-2.474.73-5.03 1.485-10.071 1.485-5.04 0-7.597-.755-10.069-1.485-2.35-.694-4.57-1.35-9.129-1.35s-6.779.656-9.129 1.35c-2.473.73-5.03 1.485-10.069 1.485s-7.596-.755-10.069-1.485C8.78 38.4 6.56 37.745 2 37.745v-3.316c5.04 0 7.597.755 10.069 1.485 2.35.694 4.57 1.35 9.129 1.35 4.56 0 6.779-.656 9.129-1.35 2.473-.73 5.03-1.485 10.069-1.485s7.596.755 10.069 1.485c2.35.694 4.569 1.35 9.13 1.35 4.562 0 6.781-.656 9.132-1.35 2.474-.73 5.03-1.485 10.07-1.485s7.597.755 10.07 1.485c2.351.694 4.57 1.35 9.132 1.35v3.316zM98 48.365c-5.041 0-7.598-.755-10.071-1.485-2.351-.694-4.57-1.35-9.131-1.35s-6.78.656-9.131 1.35c-2.474.73-5.03 1.485-10.071 1.485-5.04 0-7.597-.755-10.069-1.485-2.35-.694-4.57-1.35-9.129-1.35s-6.779.656-9.129 1.35c-2.473.73-5.03 1.485-10.069 1.485s-7.596-.755-10.069-1.485C8.78 46.186 6.56 45.53 2 45.53v-3.316c5.04 0 7.597.755 10.069 1.485 2.35.694 4.57 1.35 9.129 1.35 4.56 0 6.779-.656 9.129-1.35 2.473-.73 5.03-1.485 10.069-1.485s7.596.755 10.069 1.485c2.35.694 4.569 1.35 9.13 1.35 4.562 0 6.781-.656 9.132-1.35 2.474-.73 5.03-1.485 10.07-1.485s7.597.755 10.07 1.485c2.351.694 4.57 1.35 9.132 1.35v3.316zM98 56.149c-5.04 0-7.598-.755-10.071-1.484-2.351-.694-4.57-1.35-9.131-1.35s-6.78.655-9.131 1.35c-2.474.729-5.03 1.484-10.071 1.484-5.039 0-7.597-.755-10.069-1.484-2.35-.694-4.569-1.35-9.129-1.35s-6.78.655-9.129 1.35c-2.473.729-5.03 1.484-10.069 1.484s-7.596-.755-10.069-1.484c-2.35-.694-4.57-1.35-9.13-1.35v-3.316c5.04 0 7.596.755 10.069 1.484 2.35.694 4.569 1.35 9.129 1.35s6.78-.655 9.129-1.35c2.473-.729 5.03-1.484 10.069-1.484s7.596.755 10.069 1.484c2.35.694 4.569 1.35 9.13 1.35 4.562 0 6.781-.655 9.132-1.35 2.474-.729 5.03-1.484 10.07-1.484s7.597.755 10.07 1.484c2.351.694 4.57 1.35 9.132 1.35v3.316zM98 63.935c-5.04 0-7.598-.755-10.071-1.484-2.351-.694-4.57-1.35-9.131-1.35s-6.78.655-9.131 1.35c-2.474.729-5.03 1.484-10.071 1.484-5.039 0-7.597-.755-10.069-1.484-2.35-.694-4.569-1.35-9.129-1.35s-6.78.655-9.129 1.35c-2.473.729-5.03 1.484-10.069 1.484s-7.597-.755-10.07-1.485C8.78 61.756 6.56 61.1 2 61.1v-3.316c5.04 0 7.596.755 10.069 1.484 2.35.694 4.569 1.35 9.129 1.35s6.78-.655 9.129-1.35c2.473-.729 5.03-1.484 10.069-1.484s7.596.755 10.069 1.484c2.35.694 4.569 1.35 9.13 1.35 4.562 0 6.781-.655 9.132-1.35 2.474-.729 5.03-1.484 10.07-1.484s7.597.755 10.07 1.484c2.351.694 4.57 1.35 9.132 1.35v3.317zM98 71.719c-5.04 0-7.598-.755-10.071-1.484-2.351-.694-4.57-1.35-9.131-1.35s-6.78.655-9.131 1.35c-2.474.729-5.03 1.484-10.071 1.484-5.039 0-7.597-.755-10.069-1.484-2.35-.694-4.569-1.35-9.129-1.35s-6.78.655-9.129 1.35c-2.473.729-5.03 1.484-10.069 1.484s-7.596-.755-10.069-1.484c-2.35-.694-4.57-1.35-9.13-1.35v-3.316c5.04 0 7.596.755 10.069 1.484 2.35.694 4.569 1.35 9.129 1.35s6.78-.655 9.129-1.35c2.473-.729 5.03-1.484 10.069-1.484s7.596.755 10.069 1.484c2.35.694 4.569 1.35 9.13 1.35 4.562 0 6.781-.655 9.132-1.35 2.474-.729 5.03-1.484 10.07-1.484s7.597.755 10.07 1.484c2.351.694 4.57 1.35 9.132 1.35v3.316zM98 79.506c-5.04 0-7.598-.755-10.071-1.484-2.351-.694-4.57-1.35-9.131-1.35s-6.78.655-9.131 1.35c-2.474.729-5.03 1.484-10.071 1.484-5.039 0-7.597-.755-10.069-1.484-2.35-.694-4.569-1.35-9.129-1.35s-6.78.655-9.129 1.35c-2.473.729-5.03 1.484-10.069 1.484s-7.596-.755-10.069-1.484c-2.35-.694-4.57-1.35-9.13-1.35v-3.316c5.04 0 7.596.755 10.069 1.484 2.35.694 4.569 1.35 9.129 1.35s6.78-.655 9.129-1.35c2.473-.729 5.03-1.484 10.069-1.484s7.596.755 10.069 1.484c2.35.694 4.569 1.35 9.13 1.35 4.562 0 6.781-.655 9.132-1.35 2.474-.729 5.03-1.484 10.07-1.484s7.597.755 10.07 1.484c2.351.694 4.57 1.35 9.132 1.35v3.316zM98 87.291c-5.04 0-7.598-.755-10.071-1.484-2.351-.694-4.57-1.35-9.131-1.35s-6.78.655-9.131 1.35c-2.474.729-5.03 1.484-10.071 1.484-5.039 0-7.597-.755-10.069-1.484-2.35-.694-4.569-1.35-9.129-1.35s-6.78.655-9.129 1.35c-2.473.729-5.03 1.484-10.069 1.484s-7.596-.755-10.069-1.484c-2.35-.694-4.57-1.35-9.13-1.35v-3.316c5.04 0 7.596.755 10.069 1.484 2.35.694 4.569 1.35 9.129 1.35s6.78-.655 9.129-1.35c2.473-.729 5.03-1.484 10.069-1.484s7.596.755 10.069 1.484c2.35.694 4.569 1.35 9.13 1.35 4.562 0 6.781-.655 9.132-1.35 2.474-.729 5.03-1.484 10.07-1.484s7.597.755 10.07 1.484c2.351.694 4.57 1.35 9.132 1.35v3.316zM98 95.075c-5.04 0-7.598-.755-10.071-1.484-2.351-.694-4.57-1.35-9.131-1.35s-6.78.655-9.131 1.35c-2.474.729-5.03 1.484-10.071 1.484-5.039 0-7.597-.755-10.069-1.484-2.35-.694-4.569-1.35-9.129-1.35s-6.78.655-9.129 1.35c-2.473.729-5.03 1.484-10.069 1.484s-7.596-.755-10.069-1.484c-2.35-.694-4.57-1.35-9.13-1.35v-3.316c5.04 0 7.596.755 10.069 1.484 2.35.694 4.569 1.35 9.129 1.35s6.78-.655 9.129-1.35c2.473-.729 5.03-1.484 10.069-1.484s7.596.755 10.069 1.484c2.35.694 4.569 1.35 9.13 1.35 4.562 0 6.781-.655 9.132-1.35 2.474-.729 5.03-1.484 10.07-1.484s7.597.755 10.07 1.484c2.351.694 4.57 1.35 9.132 1.35v3.316z"></path></g><!----></svg>